<?xml version="1.0" encoding="UTF-8" standalone="no"?>
<!DOCTYPE svg PUBLIC "-//W3C//DTD SVG 1.1//EN" "http://www.w3.org/Graphics/SVG/1.1/DTD/svg11.dtd">
<svg version="1.1" xmlns="http://www.w3.org/2000/svg" xmlns:xlink="http://www.w3.org/1999/xlink" preserveAspectRatio="xMidYMid meet" viewBox="-1 -0.999556042746121 44.10000000000001 43.99999999999999" width="40" height="39.9"><defs><path d="M40.1 32.92C40.1 34.2 39.31 35.33 38.12 35.75C37.53 36.03 34.58 37.41 29.27 39.9L30.08 29.02L30.08 10.98L29.27 0.1C34.58 2.59 37.53 3.97 38.12 4.25C39.31 4.67 40.1 5.8 40.1 7.08C40.1 12.25 40.1 30.34 40.1 32.92Z" id="f5Qrceg6m"></path><path d="M3.58 31.79C4.32 32.24 5.25 32.16 5.91 31.61C7.52 30.3 15.57 23.73 30.08 11.92C30.08 5.55 30.08 2.01 30.08 1.31C30.08 0.11 28.59 -0.46 27.79 0.44C26.28 2.14 18.68 10.62 5.01 25.89L0.42 29.84C2.32 31.01 3.37 31.66 3.58 31.79Z" id="a6iIUvoSq"></path><path d="M3.58 8.21C4.32 7.76 5.25 7.84 5.91 8.39C7.52 9.7 15.57 16.27 30.08 28.08C30.08 34.45 30.08 37.99 30.08 38.69C30.08 39.9 28.59 40.46 27.79 39.56C26.28 37.86 18.68 29.38 5.01 14.11L0.42 10.16C2.32 8.99 3.37 8.34 3.58 8.21Z" id="koq84HkSu"></path><path d="M5.01 25.88C3.09 28.13 2.02 29.38 1.8 29.63C1.22 30.4 0 29.98 0 29.02C0 27.22 0 12.78 0 10.98C0 10.02 1.22 9.6 1.8 10.37C2.02 10.62 3.09 11.87 5.01 14.12L5.01 25.88Z" id="ah40t9riD"></path></defs><g><g><use xlink:href="#f5Qrceg6m" opacity="1" fill="#ce93d8" fill-opacity="1"></use><g><use xlink:href="#f5Qrceg6m" opacity="1" fill-opacity="0" stroke="#000000" stroke-width="1" stroke-opacity="0"></use></g></g><g><use xlink:href="#a6iIUvoSq" opacity="1" fill="#8e24aa" fill-opacity="1"></use><g><use xlink:href="#a6iIUvoSq" opacity="1" fill-opacity="0" stroke="#000000" stroke-width="1" stroke-opacity="0"></use></g></g><g><use xlink:href="#koq84HkSu" opacity="1" fill="#ab47bc" fill-opacity="1"></use><g><use xlink:href="#koq84HkSu" opacity="1" fill-opacity="0" stroke="#000000" stroke-width="1" stroke-opacity="0"></use></g></g><g><use xlink:href="#ah40t9riD" opacity="1" fill="#6a1b9a" fill-opacity="1"></use><g><use xlink:href="#ah40t9riD" opacity="1" fill-opacity="0" stroke="#000000" stroke-width="1" stroke-opacity="0"></use></g></g></g></svg>