<?xml version="1.0" encoding="iso-8859-1"?>
<!-- Generator: Adobe Illustrator 19.0.0, SVG Export Plug-In . SVG Version: 6.00 Build 0)  -->
<svg version="1.1" id="Capa_1" xmlns="http://www.w3.org/2000/svg" xmlns:xlink="http://www.w3.org/1999/xlink" x="0px" y="0px"
	 viewBox="0 0 512 512" style="enable-background:new 0 0 512 512;" xml:space="preserve">
<g>
	<rect x="388.414" y="467.862" style="fill:#D1D4D1;" width="61.793" height="44.138"/>
	<polygon style="fill:#BDC3C7;" points="207.978,114.759 240.022,88.814 185.291,27.895 150.069,44.138 190.146,88.814 
		158.897,113.779 159.779,114.759 	"/>
	<path style="fill:#41767F;" d="M344.276,256c24.377,0,44.138-19.761,44.138-44.138s-19.761-44.138-44.138-44.138H44.138
		C19.761,167.724,0,187.485,0,211.862S19.761,256,44.138,256H344.276z"/>
	<path style="fill:#D1D4D1;" d="M344.276,273.655V132.414c0.009-7.027-2.778-13.768-7.746-18.737
		c-4.969-4.969-11.71-7.756-18.737-7.746H70.621c-7.027-0.009-13.768,2.778-18.736,7.746c-4.969,4.969-7.756,11.71-7.746,18.737
		v141.241c-0.009,7.027,2.778,13.768,7.746,18.737c4.969,4.969,11.71,7.756,18.736,7.746h79.448
		c-9.751,0-17.655,7.904-17.655,17.655c0,9.751,7.904,17.655,17.655,17.655c-9.751,0-17.655,7.904-17.655,17.655
		c0,9.751,7.904,17.655,17.655,17.655H70.621c-7.027-0.009-13.768,2.778-18.736,7.746c-4.969,4.969-7.756,11.71-7.746,18.737
		l0,114.759h300.138V397.241c0.009-7.027-2.778-13.768-7.746-18.737s-11.71-7.756-18.737-7.746H220.69
		c9.751,0,17.655-7.904,17.655-17.655c0-9.751-7.904-17.655-17.655-17.655c9.751,0,17.655-7.905,17.655-17.655
		c0-9.751-7.904-17.655-17.655-17.655h97.103c7.027,0.009,13.768-2.778,18.737-7.746S344.285,280.682,344.276,273.655z"/>
	<path style="fill:#BDC3C7;" d="M220.69,300.138c9.751,0,17.655,7.904,17.655,17.655s-7.904,17.655-17.655,17.655
		c9.751,0,17.655,7.905,17.655,17.655s-7.904,17.655-17.655,17.655h-70.621c-9.751,0-17.655-7.904-17.655-17.655
		s7.904-17.655,17.655-17.655c-9.751,0-17.655-7.905-17.655-17.655s7.904-17.655,17.655-17.655H220.69z"/>
	<g>
		<path style="fill:#46B29D;" d="M114.759,141.241h17.655c9.751,0,17.655,7.904,17.655,17.655v17.655
			c0,9.751-7.904,17.655-17.655,17.655h-17.655c-9.751,0-17.655-7.904-17.655-17.655v-17.655
			C97.103,149.146,105.008,141.241,114.759,141.241z"/>
		<circle style="fill:#46B29D;" cx="158.897" cy="26.483" r="26.483"/>
	</g>
	<rect x="97.103" y="264.828" style="fill:#67B9CC;" width="194.207" height="35.31"/>
	<g>
		<path style="fill:#41767F;" d="M291.31,247.172v17.655H97.103v-17.655c0.028-9.739,7.916-17.627,17.655-17.655h158.897
			C283.394,229.546,291.282,237.434,291.31,247.172z"/>
		<path style="fill:#41767F;" d="M308.966,423.724V512H79.448v-88.276c0.028-9.739,7.916-17.627,17.655-17.655H291.31
			C301.049,406.097,308.937,413.985,308.966,423.724z"/>
	</g>
	<path style="fill:#A5A5A4;" d="M44.138,406.069V512H0v-61.793C0.009,425.834,19.765,406.078,44.138,406.069z"/>
	<path style="fill:#CC4B4C;" d="M460.094,385.589l-79.007,34.339l-1.677,0.706c-4.651,2.027-9.668,3.078-14.742,3.09h-40.783
		c-5.074-0.011-10.091-1.063-14.742-3.09l-0.53-0.177l-33.015-14.389l-81.479-35.31l-8.739-3.796V158.897l123.763,53.672
		c4.651,2.027,9.668,3.079,14.742,3.09h40.783c5.074-0.011,10.091-1.063,14.742-3.09l123.763-53.672v208.066l-10.063,4.326"/>
	<path style="fill:#802F34;" d="M370.759,215.128v208.066c-2.011,0.351-4.049,0.529-6.091,0.53h-40.783
		c-2.042-0.001-4.08-0.178-6.091-0.53V215.128c2.011,0.351,4.049,0.529,6.091,0.53h40.783
		C366.709,215.657,368.747,215.48,370.759,215.128z"/>
	<g>
		<path style="fill:#CBB292;" d="M490.108,164.546L379.41,212.568c-2.774,1.187-5.678,2.046-8.651,2.56
			c-0.817,0.161-1.642,0.279-2.472,0.353c-0.556,0.071-1.116,0.101-1.677,0.088c-0.645,0.072-1.293,0.101-1.942,0.088h-20.127
			c1.195-15.359,10.526-28.901,24.452-35.487l90.041-38.93L490.108,164.546z"/>
		<path style="fill:#CBB292;" d="M344.011,215.658h-20.127c-0.619,0.015-1.239-0.015-1.854-0.088
			c-0.59,0.013-1.18-0.017-1.766-0.088c-0.829-0.074-1.655-0.192-2.472-0.353c-2.973-0.514-5.877-1.373-8.651-2.56l-110.698-48.022
			l31.073-23.305l90.041,38.93C333.485,186.757,342.816,200.299,344.011,215.658z"/>
	</g>
	<path style="fill:#A5A5A4;" d="M512,396.888l-6.091,9.181l-41.578,62.941l-4.943,7.503l-11.476,0.088l-58.527,0.265h-9.445
		l-5.915-8.739l-29.572-44.05l3.266-0.353h16.949c5.074-0.011,10.091-1.062,14.742-3.09l1.059-0.441l0.706-0.088l10.152,13.33
		l6.179,8.121l9.534-0.088h14.477l11.299-0.088l5.561-6.974l22.334-28.337l7.15-9.004l-5.738-8.651l-1.942-2.913l-0.088-0.088
		l-36.458-54.113c-4.962-7.442-2.991-17.493,4.414-22.51c2.661-1.79,5.797-2.743,9.004-2.737c5.208-0.097,10.129,2.38,13.153,6.621
		l42.814,58.35l0.177,0.265l12.623,17.125L512,396.888z"/>
	<g>
		<polygon style="fill:#BDC3C7;" points="407.04,441.468 389.385,476.866 379.939,476.866 374.025,468.127 391.327,433.434 
			397.506,441.556 		"/>
		<polygon style="fill:#BDC3C7;" points="464.331,469.01 459.388,476.513 447.912,476.601 421.517,441.468 432.817,441.379 
			438.378,434.406 		"/>
		<polygon style="fill:#BDC3C7;" points="512,396.888 505.909,406.069 460.712,406.069 467.862,397.065 462.124,388.414 
			505.821,388.414 		"/>
	</g>
</g>
<g>
</g>
<g>
</g>
<g>
</g>
<g>
</g>
<g>
</g>
<g>
</g>
<g>
</g>
<g>
</g>
<g>
</g>
<g>
</g>
<g>
</g>
<g>
</g>
<g>
</g>
<g>
</g>
<g>
</g>
</svg>
